<?xml version="1.0" encoding="utf-8"?>
<!-- Generator: Adobe Illustrator 25.0.0, SVG Export Plug-In . SVG Version: 6.00 Build 0)  -->
<svg version="1.1" id="Capa_1" xmlns="http://www.w3.org/2000/svg" xmlns:xlink="http://www.w3.org/1999/xlink" x="0px" y="0px"
	 width="1280px" height="1100px" viewBox="0 0 1280 1100" enable-background="new 0 0 1280 1100" xml:space="preserve">
<g>
	<path fill="#FFFFFF" d="M727,859c-2.5,3.7-5.3,7.1-8.6,10.2c-27.9,26.3-75.3,21.3-105.9-11.1s-32.8-80.1-4.9-106.4
		c2.6-2.4,4.9-4.6,7.8-6.5c-42.8,9.1-75.4,47.2-75.4,92.7c0,52.3,42.4,94.7,94.7,94.7C679.7,932.7,717.5,901.2,727,859z"/>
	<path fill="#FFFFFF" d="M575.7,861.1c0,0,170.5-29.5,153.7-75.8c-27.3-75.1-153.7-58.9-153.7-58.9l102.2,67.4L575.7,861.1z"/>
</g>
<path fill="#FFFFFF" d="M808.9,797.9c0,0,117.1,54.2,56.7,110.5s-138.1,2.7-138.1,2.7l15.3-10.6c11.3-7.9,25.6-10.1,38.9-6.3
	c13.4,3.9,30.9,5,41.5-9.7c18.9-26.3-33-60.3-33-60.3s-69.2-40.9-41-83.2c28.2-42.2,100.3,0.6,100.3,0.6l-5.8,3.4
	c-13,7.6-28.6,10.2-43,6c-8.2-2.4-17.8-2.3-25.3,6C758.8,775.2,808.9,797.9,808.9,797.9z"/>
<path fill="#FFFFFF" d="M990.4,856.9c0,0-2.6,38.8,38.7,38.4c37.5-0.4,100-63,111.1-74.5c0.6-0.7,1.7-0.2,1.8,0.7
	c0.2,7.9,1.3,33.2,8,56.7l0,0c6.2,21.6,22.2,39,43.2,46.8l18.3,6.9c0.8,0.3,1.6-0.4,1.4-1.2c-4.8-15.6-34.9-119.9-12.5-186.1
	c0.2-0.7-0.3-1.3-1-1.3l-40.2,0c-0.3,0-0.6,0.1-0.8,0.4c-4.4,5.5-55.5,69.1-101.4,101.3c-6.2,4.3-14.7,0.5-15.5-7
	c-1.9-18.7,3.7-50.5,56.6-67.8c15.1-4.9,27.6-15.7,34.7-29.9l8.2-16.5c0.4-0.7-0.2-1.5-1-1.5C1123.6,723.2,994.4,734.8,990.4,856.9z
	"/>
<g>
	<path d="M584.2,783.2c-1.5,6-2.4,12.1-3,18.2c-0.6,6.1-0.7,12.3-0.4,18.5c0.3,6.1,1,12.3,2.4,18.3c1.3,6,3.3,11.8,5.9,17.4
		c2.6,5.5,5.8,10.7,9.8,15.4c1,1.2,2,2.3,3.1,3.4c0.5,0.5,1,1.2,1.6,1.7l1.7,1.5c2.1,2.2,4.6,4,7,5.9c9.9,7.2,21.3,12.1,33.2,15.5
		c0.1,0,0.1,0.1,0.1,0.1c0,0-0.1,0.1-0.1,0.1c-12.1-2.3-24-7-34.3-14.1c-5.1-3.7-9.7-8-13.7-12.8c-3.9-4.9-7.1-10.3-9.7-16
		c-2.6-5.7-4.5-11.7-5.7-17.8c-1.2-6.1-1.9-12.3-2.1-18.5c-0.2-6.2,0.1-12.4,0.8-18.6c0.7-6.1,1.8-12.3,3.5-18.2
		c0-0.1,0.1-0.1,0.1-0.1C584.2,783.1,584.2,783.2,584.2,783.2z"/>
</g>
<g>
	<path d="M592.5,728.4c12,0,24.1,0.6,36.1,1.7c6,0.6,12,1.3,17.9,2.3c5.9,1.1,11.8,2.5,17.6,4.4c0,0,0,0,0,0.1c0,0,0,0-0.1,0
		c-5.9-1.3-11.8-2.5-17.7-3.5c-5.9-0.9-11.9-1.8-17.9-2.5c-6-0.7-12-1.2-18-1.6C604.6,728.9,598.5,728.6,592.5,728.4
		C592.5,728.5,592.5,728.5,592.5,728.4C592.5,728.4,592.5,728.4,592.5,728.4z"/>
</g>
<g>
	<path d="M795.5,796.4c1,0.2,1.9,0.5,2.8,0.8c0.9,0.3,1.8,0.7,2.7,1.1c1.8,0.7,3.5,1.5,5.3,2.4c3.5,1.6,6.9,3.4,10.3,5.2
		c6.8,3.7,13.4,7.7,19.7,12.2c6.3,4.5,12.4,9.3,17.9,14.8c5.5,5.5,10.5,11.6,14,18.6c1.7,3.5,3.1,7.3,3.7,11.2
		c0.7,3.9,0.6,8-0.2,11.9c-0.9,3.9-2.4,7.6-4.5,11c-2.1,3.4-4.6,6.4-7.4,9.1c-2.8,2.7-5.8,5.2-9,7.5c-3.1,2.3-6.5,4.3-9.8,6.2
		c-6.8,3.8-13.8,7-21,9.8c-0.1,0-0.1,0-0.1-0.1c0,0,0-0.1,0.1-0.1l5.2-2.5l5.1-2.6c1.7-0.9,3.4-1.8,5.1-2.7l5-2.9
		c6.5-4,12.8-8.5,18.1-13.9c2.7-2.7,5.1-5.6,7.1-8.8c2-3.2,3.5-6.7,4.3-10.3c0.9-3.6,0.9-7.4,0.4-11.1c-0.6-3.7-1.8-7.3-3.4-10.8
		c-3.3-6.9-8.1-12.9-13.5-18.4c-5.4-5.5-11.3-10.4-17.6-14.9c-6.2-4.5-12.7-8.7-19.4-12.5c-3.3-1.9-6.8-3.7-10.2-5.4
		c-1.7-0.8-3.5-1.7-5.2-2.4c-0.9-0.4-1.8-0.8-2.7-1.1c-0.9-0.3-1.8-0.7-2.7-0.8l0,0c-0.1,0-0.1-0.1-0.1-0.1
		C795.4,796.4,795.5,796.4,795.5,796.4z"/>
</g>
<g>
	<path d="M1064.2,766.5c-3,2.4-5.8,5-8.5,7.8c-2.7,2.7-5.3,5.6-7.7,8.6c-4.8,6-9.1,12.4-12.2,19.3c-1.5,3.5-2.8,7.1-3.7,10.8
		l-0.6,2.8c-0.2,0.9-0.3,1.9-0.4,2.8l-0.2,1.4l-0.1,1.4c-0.1,0.9-0.2,1.9-0.2,2.8l-0.1,2.8l0.2,2.8c0,0.9,0.2,1.9,0.3,2.8
		c0.1,0.9,0.2,1.9,0.4,2.8l0.6,2.8c0.2,0.9,0.5,1.8,0.8,2.7l0.4,1.4l0.5,1.3c0.3,0.9,0.7,1.8,1,2.7l0,0c0,0.1,0,0.1-0.1,0.1
		c0,0-0.1,0-0.1,0c-3.9-6.7-6.1-14.5-6-22.4c0-1,0.1-2,0.1-2.9l0.1-1.5l0.2-1.5c0.2-2,0.7-3.9,1.2-5.8c1.1-3.8,2.5-7.4,4.2-10.9
		c3.4-7,7.9-13.4,12.9-19.3c2.5-2.9,5.2-5.7,8-8.4c2.8-2.6,5.7-5.2,8.8-7.5c0,0,0.1,0,0.1,0C1064.2,766.4,1064.2,766.4,1064.2,766.5
		z"/>
</g>
<g>
	<path d="M1181.9,745.2c0.2-0.2,0.3-0.5,0.4-0.8c0-0.1,0-0.2,0-0.2c0,0,0,0,0,0c0,0,0,0,0.1,0.1c0.2,0,0.1-0.1,0.1,0c0,0,0,0,0,0
		l0,0l0,0.1c0,0.2,0,0.3-0.1,0.5c-0.1,0.7-0.1,1.3-0.1,2c0,1.3,0,2.7,0,4c0,2.7,0.1,5.3,0.2,8c0.1,2.7,0.4,5.3,0.2,8
		c-0.1,2.7-0.3,5.3-0.8,8c0,0.1-0.1,0.1-0.1,0.1c0,0-0.1,0-0.1-0.1c-0.6-2.6-0.9-5.3-1-8c-0.2-2.7,0.1-5.3,0.2-8
		c0.1-2.7,0.2-5.3,0.4-8c0.1-1.3,0.2-2.7,0.4-4c0.1-0.7,0.2-1.3,0.3-2c0-0.2,0.1-0.3,0.1-0.5l0-0.1l0-0.1c0,0,0,0,0-0.1
		c0,0,0,0,0.2-0.1c0.2,0.1,0.1,0.1,0.1,0.1c0,0,0,0.1,0,0.1c0,0.1,0,0.2-0.1,0.3c-0.1,0.3-0.3,0.7-0.5,0.9c0,0-0.1,0-0.1,0
		C1181.9,745.3,1181.9,745.3,1181.9,745.2L1181.9,745.2z"/>
</g>
<g>
	<path d="M1186.1,833.8L1186.1,833.8C1186.1,833.7,1186.1,833.7,1186.1,833.8c0,0,0.1,0,0.1,0c0,0,0,0,0,0l0,0.2l0,0.3l-0.1,0.7
		l-0.1,1.4c0,0.9-0.1,1.9-0.1,2.8c0,1.9,0,3.8,0,5.7c0.1,3.8,0.3,7.6,0.6,11.4c0.6,7.6,1.5,15.1,2.9,22.6c1.4,7.4,3.4,14.8,5.6,22
		c1.1,3.6,2.3,7.2,3.7,10.7c0.7,1.8,1.4,3.5,2.1,5.3c0.7,1.8,1.5,3.5,2.3,5.2c0,0.1,0,0.1,0,0.1c0,0-0.1,0-0.1,0
		c-1.1-1.6-2-3.2-3-4.9c-0.9-1.7-1.8-3.4-2.6-5.1c-1.6-3.5-3-7-4.3-10.7c-2.5-7.3-4-14.8-5.2-22.3c-1.2-7.5-2-15.1-2.4-22.8
		c-0.2-3.8-0.2-7.6-0.2-11.4c0-1.9,0.1-3.8,0.2-5.7c0-1,0.1-1.9,0.2-2.9l0.1-1.4l0.1-0.7l0.1-0.4
		C1186,833.9,1186,833.8,1186.1,833.8c-0.1-0.1-0.1-0.1,0-0.2c0,0,0.1,0,0.2,0c0,0,0,0,0,0.1l0,0.1c0,0.1,0,0.1-0.1,0.1
		C1186.2,833.9,1186.1,833.8,1186.1,833.8L1186.1,833.8z"/>
</g>
<g>
	<path d="M777.8,732.6c5.1-2,10.6-2.3,16-2.3l2,0c0.7,0,1.3,0.1,2,0.1c1.3,0.1,2.7,0.1,4,0.3l4,0.5l4,0.7c1.3,0.2,2.7,0.5,4,0.7
		l4,0.8c2.6,0.7,5.2,1.3,7.8,2.1c2.6,0.8,5.2,1.6,7.7,2.5c2.5,0.9,5.1,1.9,7.6,2.9c0,0,0,0,0,0.1c0,0,0,0-0.1,0
		c-2.6-0.7-5.2-1.5-7.7-2.3l-7.8-2.2l-7.8-2.1l-3.9-0.9c-1.3-0.3-2.6-0.6-3.9-0.8l-4-0.7l-4-0.5c-1.3-0.2-2.7-0.3-4-0.4
		c-0.7-0.1-1.3-0.1-2-0.2l-2-0.1c-0.7,0-1.3-0.1-2-0.1l-2,0c-1.3,0-2.7,0.1-4,0.2c-1.3,0.2-2.7,0.3-4,0.6
		C780.4,731.9,779,732.2,777.8,732.6L777.8,732.6C777.8,732.7,777.7,732.7,777.8,732.6C777.7,732.7,777.7,732.7,777.8,732.6
		C777.8,732.6,777.8,732.6,777.8,732.6z"/>
</g>
<g>
	<path fill="#FFFFFF" d="M234.2,923.3c13.8,13.5,36.1,12.9,49.1-1.4c28-30.6,71.5-117.2,114.9-358.8
		c50.7-281.9,147-351.7,200.4-368.2c22.5-6.9,38.2-27.4,38.2-51v0c0,0-228.3-10.4-280.2,425.5c0,0-51.9,280.2-98.6,321.7
		c0,0-40.6-15.2-76.6-316.2c-1.3-10.9-4.2-21.6-8.9-31.6c-12.2-25.5-40.1-60-93.3-15c-20.3,17.2-21.6,48.1-2.8,67h0
		c0,0,39-68.1,63.6-28.9C163,603.2,150.8,841.7,234.2,923.3z"/>
	<g>
		<path d="M74.5,576.8c3.2-5.5,6.9-10.8,11-15.7c2-2.5,4.1-4.9,6.4-7.2c2.2-2.3,4.6-4.5,7.1-6.5c2.5-2,5.2-3.8,8.1-5.3
			c2.9-1.5,5.9-2.6,9.1-3.1c0.8-0.1,1.6-0.3,2.4-0.3l2.4,0l2.4,0.3c0.8,0.1,1.6,0.4,2.4,0.5c0.8,0.2,1.6,0.5,2.3,0.8
			c0.8,0.3,1.5,0.6,2.2,1l2.1,1.2l2,1.4c0.7,0.4,1.3,1,1.9,1.5l1.8,1.6l1.6,1.8c0.5,0.6,1.1,1.2,1.6,1.8c1,1.3,2,2.5,2.9,3.9l1.3,2
			c0.4,0.7,0.8,1.4,1.2,2.1c3.1,5.6,5.5,11.6,7.5,17.8c3.9,12.2,6.2,24.9,8.2,37.5c3.8,25.3,6.2,50.8,8.8,76.2
			c2.5,25.4,5.3,50.8,8.8,76.1c0,0.1,0,0.1-0.1,0.1c-0.1,0-0.1,0-0.1-0.1c-4.6-25.2-7.8-50.5-10.6-76l-2-19.1l-1.9-19.1
			c-1.3-12.7-2.7-25.4-4.5-38c-1.9-12.6-4.1-25.2-7.8-37.4c-1.9-6.1-4.2-12-7.2-17.6c-0.4-0.7-0.8-1.4-1.2-2.1l-1.3-2
			c-0.8-1.4-1.8-2.6-2.8-3.8c-0.5-0.6-1-1.2-1.5-1.8l-1.6-1.8l-1.7-1.6c-0.6-0.5-1.2-1.1-1.8-1.5l-1.9-1.4l-2-1.2
			c-0.7-0.4-1.4-0.7-2.1-1c-0.7-0.3-1.4-0.6-2.2-0.8c-0.8-0.2-1.5-0.4-2.3-0.5l-2.3-0.3l-2.4,0c-0.8,0-1.6,0.2-2.3,0.2
			c-3.1,0.5-6.1,1.5-9,2.9c-2.8,1.4-5.5,3.2-8,5.1c-2.5,1.9-4.9,4.1-7.1,6.3c-2.3,2.2-4.4,4.6-6.4,7.1c-4.1,4.9-7.8,10.1-11.1,15.6
			c0,0-0.1,0.1-0.1,0C74.5,577,74.5,576.9,74.5,576.8z"/>
	</g>
	<g>
		<path d="M217.9,867.4c3,9,6.8,17.7,11.3,26.1c2.3,4.1,4.8,8.2,7.7,11.9c2.9,3.7,6.1,7.3,10,10c1.9,1.3,4,2.4,6.2,3.2
			c2.2,0.7,4.6,1,6.9,0.8c4.7-0.5,8.9-3,12.4-6c1.8-1.6,3.4-3.2,4.9-5.1l2.2-2.8c0.7-1,1.3-2,2-2.9c0.6-1,1.4-1.9,2-3l1.8-3
			c1.3-2,2.4-4.1,3.5-6.2c4.5-8.3,8.7-16.9,12.5-25.6c1-2.2,1.9-4.3,2.9-6.5l2.8-6.5c1.8-4.4,3.6-8.8,5.4-13.2
			c7-17.6,13.5-35.5,19.6-53.5c6.1-18,11.9-36.1,17.3-54.3c5.5-18.2,10.6-36.4,15.4-54.8c4.8-18.4,9.2-36.8,13-55.4
			c3.8-18.6,7.1-37.3,8.4-56.3c0-0.1,0.1-0.1,0.1-0.1c0.1,0,0.1,0.1,0.1,0.1c-0.4,9.5-1.4,19-2.6,28.4l-1,7.1
			c-0.3,2.4-0.7,4.7-1.1,7l-1.2,7l-1.3,7c-3.5,18.7-7.8,37.2-12.5,55.6c-4.8,18.4-9.9,36.7-15.4,54.9c-5.6,18.2-11.5,36.3-17.7,54.2
			c-6.2,18-12.8,35.8-20,53.4c-1.8,4.4-3.6,8.8-5.4,13.2l-2.8,6.5c-0.9,2.2-1.9,4.4-2.9,6.5c-3.9,8.7-8.1,17.2-12.7,25.6
			c-1.2,2.1-2.3,4.2-3.6,6.2l-1.9,3c-0.6,1-1.3,2-2,3c-0.7,1-1.3,2-2,2.9l-2.3,2.8c-1.5,1.9-3.2,3.6-5,5.2c-3.6,3.1-8,5.7-12.9,6.1
			c-2.4,0.2-4.9-0.1-7.2-0.8c-2.3-0.8-4.4-1.9-6.4-3.3c-3.9-2.8-7.2-6.4-10-10.2c-2.9-3.8-5.4-7.9-7.6-12.1
			c-4.5-8.4-8.2-17.2-11.2-26.2c0-0.1,0-0.1,0.1-0.1C217.8,867.3,217.9,867.3,217.9,867.4z"/>
	</g>
	<g>
		<path d="M523.4,227.2c7.3-6.5,15.1-12.4,23.1-17.9c8.1-5.5,16.4-10.5,25.1-15.1c4.3-2.4,8.7-4.4,13.1-6.6c2.2-1,4.5-1.9,6.7-2.9
			l3.4-1.4l3.5-1.2l6.9-2.4c2.4-0.7,4.7-1.4,7.1-2c1.2-0.3,2.4-0.7,3.5-0.9l3.6-0.8c2.4-0.5,4.8-1,7.2-1.4c0.1,0,0.1,0,0.1,0.1
			c0,0.1,0,0.1-0.1,0.1l0,0c-2.3,0.7-4.7,1.4-7,2.1l-3.5,1c-1.2,0.4-2.3,0.8-3.5,1.2c-2.3,0.8-4.6,1.5-6.9,2.3l-6.8,2.6l-3.4,1.3
			l-3.3,1.4c-2.2,0.9-4.5,1.8-6.7,2.8c-4.4,2-8.9,3.9-13.2,6.2c-8.7,4.4-17.1,9.2-25.3,14.5c-8.2,5.3-16.1,11-23.5,17.2
			c0,0-0.1,0-0.1,0C523.4,227.3,523.4,227.3,523.4,227.2z"/>
	</g>
</g>
<g>
	<g>
		<path fill="#FFFFFF" d="M485.4,556.3l56.2,27.6c0,0-61.3,128.6-40.5,355.6c0,0-66.5-11.8-66.7-83.9S475.1,572.1,485.4,556.3z"/>
		<path fill="#FFFFFF" d="M534,699.7l-141.2-1.4l12.7-25.9c9.1-18.5,28-30.1,48.6-29.8l139.7,2.3l-13.6,26.6
			C571.5,689,553.6,699.9,534,699.7z"/>
	</g>
	<g>
		<path fill="#FFFFFF" d="M515.5,589.4c0,0-46,143.1-35.3,309.6"/>
		<path d="M515.6,589.4c-7.4,25-13.2,50.5-18.1,76.1l-1.8,9.6c-0.6,3.2-1.2,6.4-1.7,9.6l-3.2,19.3l-2.7,19.4l-0.7,4.8l-0.6,4.9
			l-1.1,9.7l-1.1,9.7c-0.3,3.2-0.6,6.5-0.9,9.7c-0.5,6.5-1.2,13-1.6,19.5l-1.1,19.5l-0.3,4.9l-0.2,2.4l-0.1,2.4l-0.3,9.8
			c-1.3,26-0.6,52.1,0.2,78.2c0,0.1,0,0.1-0.1,0.1c-0.1,0-0.1,0-0.1-0.1c-1.9-26-2.9-52.2-2-78.3c0.1-13.1,1.2-26.1,2-39.1
			c0.5-6.5,1.2-13,1.8-19.5c0.3-3.2,0.6-6.5,1-9.7l1.2-9.7l1.2-9.7l0.6-4.9l0.7-4.8l2.9-19.4l3.3-19.3c0.5-3.2,1.2-6.4,1.8-9.6
			l1.9-9.6c5.2-25.6,11.2-51,18.9-75.9c0-0.1,0.1-0.1,0.1-0.1C515.6,589.3,515.6,589.4,515.6,589.4z"/>
	</g>
	<g>
		<path fill="#FFFFFF" d="M492.7,584.7c0,0-37.1,139.9-36,241.7"/>
		<path d="M492.8,584.7c-5,19.8-9.5,39.7-13.6,59.7c-4.1,20-7.8,40.1-11.1,60.2c-1.5,10.1-3.1,20.2-4.3,30.3
			c-1.4,10.1-2.4,20.3-3.6,30.4c-2,20.3-3.3,40.7-3.5,61.1c0,0,0,0.1,0,0.1c0,0-0.1,0-0.1,0l0-15.3l0-3.8c0-1.3,0.1-2.6,0.2-3.8
			l0.3-7.7l0.3-7.7c0.1-2.6,0.4-5.1,0.5-7.6c0.4-5.1,0.7-10.2,1.2-15.3c2-20.3,4.8-40.6,8.1-60.7c3.3-20.1,7.2-40.2,11.4-60.2
			C482.9,624.3,487.5,604.4,492.8,584.7C492.7,584.7,492.7,584.6,492.8,584.7C492.8,584.7,492.8,584.7,492.8,584.7z"/>
	</g>
	
		<rect x="434.5" y="650.1" transform="matrix(0.9998 2.040122e-02 -2.040122e-02 0.9998 13.7945 -9.8408)" fill="#FFFFFF" width="109.5" height="42.1"/>
</g>
<g>
	<g>
		<path fill="#FFFFFF" d="M952.5,555.4l56.2,27.6c0,0-61.3,128.6-40.5,355.6c0,0-66.5-11.8-66.7-83.9S942.3,571.2,952.5,555.4z"/>
		<path fill="#FFFFFF" d="M1001.2,698.8l-141.2-1.4l12.7-25.9c9.1-18.5,28-30.1,48.6-29.8l139.7,2.3l-13.6,26.6
			C1038.7,688.1,1020.7,699,1001.2,698.8z"/>
	</g>
	<g>
		<path fill="#FFFFFF" d="M982.7,588.5c0,0-46,143.1-35.3,309.6"/>
		<path d="M982.8,588.6c-7.4,25-13.2,50.5-18.1,76.1l-1.8,9.6c-0.6,3.2-1.2,6.4-1.7,9.6l-3.2,19.3l-2.7,19.4l-0.7,4.8l-0.6,4.9
			l-1.1,9.7l-1.1,9.7c-0.3,3.2-0.6,6.5-0.9,9.7c-0.5,6.5-1.2,13-1.6,19.5l-1.1,19.5l-0.3,4.9l-0.2,2.4l-0.1,2.4l-0.3,9.8
			c-1.3,26-0.6,52.1,0.2,78.2c0,0.1,0,0.1-0.1,0.1c-0.1,0-0.1,0-0.1-0.1c-1.9-26-2.9-52.2-2-78.3c0.1-13.1,1.2-26.1,2-39.1
			c0.5-6.5,1.2-13,1.8-19.5c0.3-3.2,0.6-6.5,1-9.7l1.2-9.7l1.2-9.7l0.6-4.9l0.7-4.8l2.9-19.4l3.3-19.3c0.5-3.2,1.2-6.4,1.8-9.6
			l1.9-9.6c5.2-25.6,11.2-51,18.9-75.9c0-0.1,0.1-0.1,0.1-0.1C982.7,588.5,982.8,588.5,982.8,588.6z"/>
	</g>
	<g>
		<path fill="#FFFFFF" d="M959.9,583.8c0,0-37.1,139.9-36,241.7"/>
		<path d="M959.9,583.8c-5,19.8-9.5,39.7-13.6,59.7c-4.1,20-7.8,40.1-11.1,60.2c-1.5,10.1-3.1,20.2-4.3,30.3
			c-1.4,10.1-2.4,20.3-3.6,30.4c-2,20.3-3.3,40.7-3.5,61.1c0,0,0,0.1,0,0.1c0,0-0.1,0-0.1,0l0-15.3l0-3.8c0-1.3,0.1-2.6,0.2-3.8
			l0.3-7.7l0.3-7.7c0.1-2.6,0.4-5.1,0.5-7.6c0.4-5.1,0.7-10.2,1.2-15.3c2-20.3,4.8-40.6,8.1-60.7c3.3-20.1,7.2-40.2,11.4-60.2
			C950.1,623.5,954.7,603.6,959.9,583.8C959.9,583.8,959.9,583.8,959.9,583.8C959.9,583.8,959.9,583.8,959.9,583.8z"/>
	</g>
	
		<rect x="901.7" y="649.3" transform="matrix(0.9998 2.040122e-02 -2.040122e-02 0.9998 13.8742 -19.372)" fill="#FFFFFF" width="109.5" height="42.1"/>
</g>
</svg>
