<svg id="Capa_1" data-name="Capa 1" xmlns="http://www.w3.org/2000/svg" viewBox="0 0 1150 795.6"><defs><style>.cls-1{fill:#07060c;}.cls-2{fill:#fff;}</style></defs><path class="cls-1" d="M727,859a60.35,60.35,0,0,1-8.64,10.2c-27.9,26.31-75.32,21.33-105.92-11.12s-32.8-80.08-4.91-106.39a56.22,56.22,0,0,1,7.76-6.46c-42.81,9.11-75.42,47.2-75.42,92.73A94.75,94.75,0,0,0,727,859Z" transform="translate(-63 -143.9)"/><path d="M575.68,861.11s170.52-29.48,153.68-75.79c-27.3-75.08-153.68-59-153.68-59l102.2,67.37Z" transform="translate(-63 -143.9)"/><path d="M808.87,797.88s117.06,54.25,56.72,110.49-138.14,2.7-138.14,2.7l15.28-10.6a45.87,45.87,0,0,1,38.86-6.34c13.38,3.85,30.89,5,41.45-9.71,18.88-26.27-33-60.27-33-60.27S720.81,783.23,749,741s100.26.6,100.26.6L843.42,745c-13,7.61-28.57,10.22-43,6-8.18-2.37-17.76-2.31-25.25,6C758.8,775.17,808.87,797.88,808.87,797.88Z" transform="translate(-63 -143.9)"/><path d="M990.41,856.9s-2.56,38.81,38.72,38.35c37.51-.42,100-63,111.15-74.46a1,1,0,0,1,1.75.7c.19,7.9,1.32,33.25,8,56.74h0a70.88,70.88,0,0,0,43.24,46.84l18.34,6.87a1,1,0,0,0,1.36-1.24c-4.76-15.63-34.94-120-12.48-186.14a1,1,0,0,0-1-1.35h-40.18a1,1,0,0,0-.8.39c-4.41,5.54-55.5,69.11-101.37,101.33a9.87,9.87,0,0,1-15.5-7c-1.91-18.69,3.66-50.5,56.63-67.8A59.38,59.38,0,0,0,1133,740.23l8.24-16.48a1,1,0,0,0-1-1.51C1123.63,723.22,994.35,734.77,990.41,856.9Z" transform="translate(-63 -143.9)"/><path class="cls-2" d="M584.2,783.24a121.07,121.07,0,0,0-3.05,18.23,129.15,129.15,0,0,0-.45,18.45,107.63,107.63,0,0,0,2.36,18.25A83.79,83.79,0,0,0,589,855.53a71.75,71.75,0,0,0,9.77,15.41c1,1.18,2,2.26,3,3.39.53.55,1,1.15,1.58,1.65l1.67,1.55a78.37,78.37,0,0,0,7,5.87c9.87,7.21,21.32,12.06,33.16,15.5a.1.1,0,0,1,.07.13.09.09,0,0,1-.11.07A90.7,90.7,0,0,1,610.84,885,69.14,69.14,0,0,1,587.5,856.2a85,85,0,0,1-5.71-17.76A109.52,109.52,0,0,1,579.7,820a130.58,130.58,0,0,1,.85-18.55A122.69,122.69,0,0,1,584,783.18a.1.1,0,0,1,.13-.06A.1.1,0,0,1,584.2,783.24Z" transform="translate(-63 -143.9)"/><path class="cls-2" d="M592.52,728.43c12.05,0,24.1.58,36.1,1.71,6,.6,12,1.29,17.94,2.35a141,141,0,0,1,17.55,4.36,0,0,0,0,1,0,.06s0,0,0,0c-5.88-1.34-11.77-2.52-17.7-3.48s-11.88-1.83-17.86-2.53-12-1.2-18-1.59-12-.71-18-.82a.05.05,0,0,1,0,0A0,0,0,0,1,592.52,728.43Z" transform="translate(-63 -143.9)"/><path class="cls-2" d="M795.51,796.4a16.39,16.39,0,0,1,2.8.81c.91.33,1.81.69,2.7,1.06,1.78.74,3.54,1.53,5.29,2.35,3.5,1.64,6.94,3.4,10.33,5.25a201.85,201.85,0,0,1,19.72,12.19,139.66,139.66,0,0,1,17.89,14.79,71.24,71.24,0,0,1,14,18.6A40.35,40.35,0,0,1,872,862.62a31.29,31.29,0,0,1-.22,11.85,35.27,35.27,0,0,1-4.51,11,49.27,49.27,0,0,1-7.43,9.14,74.47,74.47,0,0,1-9,7.46,105.2,105.2,0,0,1-9.83,6.25,160.32,160.32,0,0,1-21,9.75.1.1,0,0,1-.13-.06.09.09,0,0,1,.05-.12l5.21-2.5,5.15-2.62c1.71-.89,3.39-1.83,5.08-2.74l5-2.91c6.51-4.05,12.84-8.47,18.14-13.93a46.4,46.4,0,0,0,7.07-8.82,33.88,33.88,0,0,0,4.35-10.3,29.39,29.39,0,0,0,.38-11.14,38.44,38.44,0,0,0-3.39-10.75,70.29,70.29,0,0,0-13.49-18.39,140.35,140.35,0,0,0-17.55-14.89,203.64,203.64,0,0,0-19.43-12.48q-5-2.85-10.21-5.41c-1.73-.84-3.47-1.67-5.24-2.43-.88-.38-1.77-.76-2.67-1.1a15.11,15.11,0,0,0-2.73-.85h0a.1.1,0,0,1-.08-.12A.1.1,0,0,1,795.51,796.4Z" transform="translate(-63 -143.9)"/><path class="cls-2" d="M1064.16,766.45a101.12,101.12,0,0,0-8.51,7.78,113.42,113.42,0,0,0-7.67,8.58,88.92,88.92,0,0,0-12.2,19.34,64.72,64.72,0,0,0-3.7,10.75l-.59,2.77c-.23.92-.28,1.87-.45,2.8l-.22,1.4-.11,1.4a26.69,26.69,0,0,0-.18,2.82l-.06,2.83.17,2.83a23.91,23.91,0,0,0,.31,2.81c.15.94.21,1.89.44,2.81l.6,2.79c.24.92.54,1.82.81,2.74l.4,1.38.51,1.34c.34.89.68,1.8,1,2.71h0a.11.11,0,0,1-.07.13.09.09,0,0,1-.12-.05,43.75,43.75,0,0,1-6-22.36,29.14,29.14,0,0,1,.15-2.95l.1-1.47.2-1.46a56.54,56.54,0,0,1,1.18-5.76,66.84,66.84,0,0,1,4.17-10.94,90.62,90.62,0,0,1,12.88-19.3q3.81-4.39,8-8.37a101.52,101.52,0,0,1,8.81-7.51.11.11,0,0,1,.14,0A.11.11,0,0,1,1064.16,766.45Z" transform="translate(-63 -143.9)"/><path class="cls-2" d="M1181.92,745.25a1.64,1.64,0,0,0,.37-.84c0-.07,0-.17,0-.2s0,0,0,0,0,0,.12.08.14-.06.15,0l0,0v0l0,.12c0,.15,0,.32,0,.48,0,.65-.08,1.32-.1,2,0,1.32,0,2.65,0,4,0,2.65.08,5.31.17,8s.36,5.31.25,8a55.51,55.51,0,0,1-.76,8,.1.1,0,0,1-.12.08.11.11,0,0,1-.08-.08,49,49,0,0,1-1-8,78.91,78.91,0,0,1,.15-8c.11-2.67.24-5.33.43-8,.11-1.33.23-2.66.39-4,.08-.66.17-1.32.29-2,0-.16.07-.33.11-.5l0-.13,0-.08s0,0,0-.08,0,0,.17,0,.1.07.12.09a.24.24,0,0,1,0,.08.85.85,0,0,1-.05.3,1.88,1.88,0,0,1-.53.91.1.1,0,0,1-.14,0,.11.11,0,0,1,0-.13Z" transform="translate(-63 -143.9)"/><path class="cls-2" d="M1186.1,833.76v0s.14,0,.12,0,0,0,0,0l0,.16,0,.35-.06.71-.08,1.42c0,1-.06,1.9-.07,2.85,0,1.9,0,3.8,0,5.69.09,3.8.29,7.6.59,11.38a205.39,205.39,0,0,0,2.93,22.55,211.2,211.2,0,0,0,5.56,22c1.09,3.62,2.32,7.19,3.65,10.74q1,2.65,2.13,5.27c.71,1.75,1.52,3.47,2.3,5.21a.1.1,0,0,1-.05.13.09.09,0,0,1-.12,0c-1.06-1.59-2-3.25-3-4.92s-1.77-3.39-2.59-5.12a102.11,102.11,0,0,1-4.27-10.66,135.1,135.1,0,0,1-5.24-22.33,207.41,207.41,0,0,1-2.35-22.77c-.17-3.81-.24-7.62-.19-11.43,0-1.91.07-3.81.17-5.72,0-1,.1-1.9.17-2.85l.13-1.42.09-.72.06-.35a1.62,1.62,0,0,1,0-.19.27.27,0,0,1,.07-.13s.12-.05.15,0,0,0,0,.06l0,.06a.1.1,0,0,1-.19,0Z" transform="translate(-63 -143.9)"/><path class="cls-2" d="M777.76,732.64c5.06-2,10.59-2.27,16-2.26l2,0c.67,0,1.35.09,2,.13,1.35.1,2.71.14,4.05.33l4,.47,4,.65c1.34.2,2.67.46,4,.75l4,.81c2.63.65,5.25,1.32,7.85,2.07s5.16,1.62,7.71,2.52,5.05,1.91,7.56,2.92a.06.06,0,0,1,0,.07.06.06,0,0,1-.07,0c-2.6-.74-5.17-1.54-7.74-2.34l-7.77-2.23-7.8-2.06-3.93-.91c-1.31-.31-2.62-.61-3.95-.83l-4-.72-4-.54c-1.33-.22-2.67-.28-4-.41-.67-.05-1.34-.13-2-.16l-2-.07c-.68,0-1.35-.07-2-.07l-2,0c-1.34,0-2.68.14-4,.21s-2.67.31-4,.58a19.8,19.8,0,0,0-3.86,1.1h0a.06.06,0,0,1-.07,0,.05.05,0,0,1,0-.07Z" transform="translate(-63 -143.9)"/><path d="M234.15,923.31a34.15,34.15,0,0,0,49.09-1.38c28-30.61,71.5-117.24,114.92-358.84,50.66-281.93,147-351.73,200.41-368.2,22.54-6.94,38.16-27.39,38.16-51h0S408.42,133.54,356.53,569.4c0,0-51.88,280.2-98.58,321.71,0,0-40.55-15.21-76.57-316.17a100.82,100.82,0,0,0-8.95-31.55c-12.16-25.48-40.12-60-93.32-15a45.56,45.56,0,0,0-2.77,67h0s39-68.14,63.62-28.88C163,603.2,150.82,841.75,234.15,923.31Z" transform="translate(-63 -143.9)"/><path class="cls-2" d="M74.54,576.85a129.36,129.36,0,0,1,10.95-15.74c2-2.48,4.13-4.89,6.38-7.17A73.83,73.83,0,0,1,99,547.48a50.84,50.84,0,0,1,8.06-5.28,32,32,0,0,1,9.14-3.1c.81-.09,1.61-.27,2.42-.28l2.44,0,2.43.26a21.55,21.55,0,0,1,2.38.54,13.33,13.33,0,0,1,2.31.77,13.93,13.93,0,0,1,2.23,1l2.14,1.18,2,1.41a15.4,15.4,0,0,1,1.88,1.54l1.8,1.63,1.64,1.78a19.67,19.67,0,0,1,1.58,1.84,45.35,45.35,0,0,1,2.86,3.9l1.32,2c.42.69.79,1.4,1.19,2.1a95.87,95.87,0,0,1,7.46,17.75c3.88,12.25,6.19,24.89,8.16,37.53,3.8,25.31,6.2,50.77,8.77,76.19s5.33,50.8,8.81,76.12a.1.1,0,0,1-.09.12.11.11,0,0,1-.11-.08c-4.6-25.15-7.77-50.55-10.6-75.95l-2-19.07-1.92-19.07c-1.27-12.7-2.65-25.4-4.45-38s-4.07-25.21-7.82-37.37a95,95,0,0,0-7.22-17.58c-.39-.69-.75-1.4-1.16-2.08l-1.28-2a45.15,45.15,0,0,0-2.77-3.85,17.52,17.52,0,0,0-1.53-1.8l-1.59-1.76-1.74-1.59a13.06,13.06,0,0,0-1.81-1.51l-1.9-1.39-2-1.16a13.28,13.28,0,0,0-2.13-1,13.14,13.14,0,0,0-2.21-.77,22.79,22.79,0,0,0-2.28-.53l-2.33-.28h-2.35a22.92,22.92,0,0,0-2.34.25,31.11,31.11,0,0,0-9,2.94,50.51,50.51,0,0,0-8,5.12,72.58,72.58,0,0,0-7.13,6.34c-2.26,2.25-4.4,4.62-6.43,7.08A128.23,128.23,0,0,0,74.71,577a.1.1,0,0,1-.13,0A.1.1,0,0,1,74.54,576.85Z" transform="translate(-63 -143.9)"/><path class="cls-2" d="M217.88,867.39a163.45,163.45,0,0,0,11.35,26.07,96.32,96.32,0,0,0,7.67,11.95,46.94,46.94,0,0,0,10,10,23.42,23.42,0,0,0,6.25,3.16,17,17,0,0,0,6.89.75c4.66-.48,8.89-3,12.4-6a37.9,37.9,0,0,0,4.87-5.1l2.2-2.76c.69-1,1.33-2,2-2.92s1.36-1.94,2-3l1.83-3c1.25-2,2.37-4.1,3.51-6.18,4.51-8.33,8.65-16.88,12.48-25.56,1-2.16,1.93-4.33,2.86-6.51l2.8-6.55c1.79-4.39,3.65-8.76,5.37-13.18,7-17.64,13.51-35.49,19.65-53.45s11.89-36.06,17.32-54.25,10.65-36.45,15.4-54.83,9.24-36.82,13.05-55.41,7-37.33,8.38-56.28a.1.1,0,0,1,.19,0c-.38,9.5-1.37,19-2.56,28.4l-1,7.05c-.33,2.36-.71,4.7-1.12,7l-1.18,7-1.3,7c-3.53,18.68-7.83,37.21-12.48,55.65s-9.94,36.7-15.44,54.89-11.46,36.25-17.71,54.2-12.83,35.79-20,53.41c-1.75,4.42-3.64,8.79-5.45,13.18l-2.84,6.54c-.94,2.18-1.9,4.36-2.9,6.51-3.89,8.68-8.08,17.23-12.66,25.57-1.15,2.08-2.29,4.17-3.57,6.19l-1.86,3c-.61,1-1.33,2-2,3s-1.33,2-2,2.94L278,908.69a38,38,0,0,1-5,5.15c-3.6,3.12-8,5.67-12.85,6.14a17.73,17.73,0,0,1-7.16-.83,24.4,24.4,0,0,1-6.4-3.29,47.32,47.32,0,0,1-10-10.15,95.3,95.3,0,0,1-7.63-12.06,163.06,163.06,0,0,1-11.19-26.2.09.09,0,0,1,.06-.12A.1.1,0,0,1,217.88,867.39Z" transform="translate(-63 -143.9)"/><path class="cls-2" d="M523.4,227.25a233.16,233.16,0,0,1,23.11-17.93,265.66,265.66,0,0,1,25.07-15.14c4.28-2.38,8.71-4.44,13.11-6.59,2.23-1,4.49-1.94,6.74-2.9l3.39-1.39,3.46-1.24,6.94-2.37c2.36-.67,4.7-1.37,7.07-2,1.18-.31,2.35-.65,3.54-.94l3.59-.76c2.4-.47,4.79-1,7.18-1.4a.1.1,0,0,1,.12.08.09.09,0,0,1-.07.11h0c-2.34.73-4.68,1.39-7,2.08l-3.51,1c-1.15.37-2.3.78-3.45,1.17-2.29.81-4.61,1.53-6.91,2.29L599,183.93l-3.41,1.26-3.35,1.43c-2.24.94-4.5,1.81-6.72,2.78-4.42,2-8.87,3.95-13.18,6.2a262.55,262.55,0,0,0-25.25,14.55,234.73,234.73,0,0,0-23.54,17.24.1.1,0,0,1-.14,0A.11.11,0,0,1,523.4,227.25Z" transform="translate(-63 -143.9)"/><path d="M485.36,556.31l56.18,27.6S480.26,712.53,501,939.5c0,0-66.46-11.82-66.72-83.89S475.08,572.09,485.36,556.31Z" transform="translate(-63 -143.9)"/><path d="M534.05,699.69l-141.17-1.36,12.72-25.88a53.23,53.23,0,0,1,48.64-29.76L593.91,645l-13.57,26.65A51.39,51.39,0,0,1,534.05,699.69Z" transform="translate(-63 -143.9)"/><path d="M515.49,589.41s-46,143.08-35.3,309.57" transform="translate(-63 -143.9)"/><path class="cls-2" d="M515.58,589.44c-7.43,25-13.22,50.47-18.15,76.07l-1.79,9.61c-.58,3.21-1.23,6.41-1.73,9.63l-3.16,19.3L488,723.41l-.67,4.84-.56,4.86-1.11,9.71-1.1,9.71c-.33,3.24-.57,6.49-.86,9.74-.54,6.49-1.15,13-1.63,19.48L481,801.26l-.31,4.88-.15,2.44-.08,2.44-.3,9.76c-1.27,26.05-.55,52.12.16,78.2a.1.1,0,0,1-.1.1.1.1,0,0,1-.1-.09c-1.86-26-2.87-52.16-2-78.27.14-13.06,1.22-26.09,2-39.12.55-6.51,1.22-13,1.83-19.5.32-3.25.59-6.5,1-9.75l1.2-9.71,1.19-9.72.59-4.86.71-4.85,2.86-19.37,3.32-19.29c.52-3.22,1.2-6.42,1.81-9.62l1.86-9.61c5.19-25.58,11.25-51,18.94-75.94a.11.11,0,0,1,.13-.07A.1.1,0,0,1,515.58,589.44Z" transform="translate(-63 -143.9)"/><path d="M492.72,584.7s-37.14,139.85-36,241.68" transform="translate(-63 -143.9)"/><path class="cls-2" d="M492.76,584.71c-5,19.78-9.48,39.7-13.6,59.69s-7.81,40.06-11.06,60.21c-1.49,10.09-3.11,20.16-4.33,30.29-1.44,10.1-2.45,20.26-3.56,30.39-2,20.3-3.26,40.67-3.48,61.09a0,0,0,0,1-.05,0,.05.05,0,0,1-.05,0V811.07l0-3.83c0-1.28.1-2.55.15-3.83l.34-7.65.34-7.65c.11-2.55.37-5.09.54-7.64.4-5.09.75-10.19,1.19-15.27,2-20.33,4.82-40.57,8.1-60.72s7.15-40.21,11.36-60.18,8.83-39.87,14-59.62c0,0,0,0,.06,0S492.77,584.68,492.76,584.71Z" transform="translate(-63 -143.9)"/><rect x="434.48" y="650.13" width="109.47" height="42.08" transform="translate(-49.21 -153.74) rotate(1.17)"/><path d="M952.54,555.45,1008.72,583s-61.28,128.63-40.55,355.59c0,0-66.45-11.81-66.71-83.88S942.26,571.23,952.54,555.45Z" transform="translate(-63 -143.9)"/><path d="M1001.22,698.83l-141.16-1.36,12.71-25.88a53.25,53.25,0,0,1,48.64-29.76l139.68,2.28-13.57,26.65A51.4,51.4,0,0,1,1001.22,698.83Z" transform="translate(-63 -143.9)"/><path d="M982.66,588.55s-46,143.08-35.29,309.57" transform="translate(-63 -143.9)"/><path class="cls-2" d="M982.76,588.58c-7.44,25-13.23,50.47-18.15,76.07l-1.79,9.61c-.58,3.21-1.23,6.4-1.73,9.63l-3.16,19.29-2.72,19.37-.67,4.84-.55,4.86L952.88,742l-1.1,9.71c-.33,3.24-.57,6.49-.86,9.74-.54,6.49-1.16,13-1.64,19.48l-1.14,19.51-.3,4.88-.16,2.43-.07,2.45-.3,9.76c-1.27,26.05-.56,52.11.16,78.2a.1.1,0,0,1-.1.1.1.1,0,0,1-.1-.09c-1.86-26-2.87-52.16-2-78.27.14-13.06,1.22-26.09,2-39.12.54-6.51,1.22-13,1.82-19.5.33-3.25.6-6.5,1-9.75l1.2-9.72,1.19-9.71.59-4.86.71-4.85L956.64,703,960,683.69c.52-3.22,1.2-6.42,1.8-9.62l1.87-9.61c5.19-25.58,11.24-51,18.94-75.94a.11.11,0,0,1,.12-.07A.11.11,0,0,1,982.76,588.58Z" transform="translate(-63 -143.9)"/><path d="M959.89,583.83s-37.13,139.86-36,241.69" transform="translate(-63 -143.9)"/><path class="cls-2" d="M959.94,583.85c-5,19.78-9.48,39.7-13.6,59.69s-7.82,40.06-11.06,60.21c-1.5,10.09-3.11,20.16-4.33,30.29-1.44,10.1-2.45,20.25-3.56,30.39-2,20.3-3.26,40.67-3.48,61.09a0,0,0,1,1-.1,0V810.21l0-3.83c0-1.28.1-2.55.15-3.83l.34-7.65.34-7.65c.11-2.55.36-5.09.54-7.64.4-5.09.75-10.19,1.19-15.27,2-20.33,4.82-40.57,8.1-60.72s7.15-40.21,11.36-60.18,8.83-39.87,14-59.62c0,0,0,0,.06,0S960,583.82,959.94,583.85Z" transform="translate(-63 -143.9)"/><rect x="901.65" y="649.27" width="109.47" height="42.08" transform="translate(-49.13 -163.27) rotate(1.17)"/></svg>